<?xml version="1.0" encoding="utf-8"?>
<!-- Generator: Adobe Illustrator 19.0.0, SVG Export Plug-In . SVG Version: 6.00 Build 0)  -->
<svg version="1.1" id="Layer_1" xmlns="http://www.w3.org/2000/svg" xmlns:xlink="http://www.w3.org/1999/xlink" x="0px" y="0px"
	 viewBox="-37 39 34 34" style="enable-background:new -37 39 34 34;" xml:space="preserve">
<style type="text/css">
	.st0{fill:#FFFFFF;}
</style>
<path class="st0" d="M-20,39c-9.4,0-17,7.6-17,17s7.6,17,17,17s17-7.6,17-17S-10.6,39-20,39z M-24.8,63.1h-3.3V52.5h3.3V63.1z
	 M-26.5,51.2c-1.2,0-2-0.8-2-1.8s0.8-1.8,2-1.8s2,0.8,2,1.8S-25.2,51.2-26.5,51.2z M-11.5,63.1h-3.8v-5.5c0-1.4-0.6-2.4-1.9-2.4
	c-1,0-1.5,0.7-1.8,1.3c0,0.2,0,0.6,0,0.9v5.7h-3.7c0,0,0-9.7,0-10.6h3.7v1.7c0.2-0.7,1.4-1.8,3.3-1.8c2.4,0,4.2,1.5,4.2,4.8V63.1z"
	/>
</svg>
