<svg xmlns="http://www.w3.org/2000/svg" width="500" height="500" viewBox="0 0 500 500">
  <defs>
    <style>
      .cls-1 {
        fill-rule: evenodd;
      }
    </style>
  </defs>
  <path class="cls-1" d="M205.263,30c-43.263,0-75.99,35.349-75.99,79.875V121.86s-14.715,4.683-14.715,17.879c0,13.224,4.969,43.651,18.178,43.651h6.581l22.348,58.289c3.965,13.24-3.744,34.978-9.153,41.554-23.9,28.875-99.132,24.455-99.132,64.13v44.321s18.97,21.789,125.479,21.789h45.289v-67.1A47.918,47.918,0,0,1,262.1,299.386V288.848l0.145-3.052-4.334-4.544c-5.432-6.576-13.215-26.333-9.264-39.573l22.493-58.289h6.594c13.175,0,18.176-30.427,18.176-43.651,0-13.2-14.84-17.879-14.84-17.879V109.873c0-44.525-32.593-79.875-75.8-79.875M337.987,336.781V288.848a28.465,28.465,0,1,1,56.926,0v47.933H337.987M366.453,221.74c-36.692,0-66.412,30.033-66.412,67.108v47.933H271.578a9.558,9.558,0,0,0-9.482,9.591V461.421A9.55,9.55,0,0,0,271.578,471H461.322a9.555,9.555,0,0,0,9.488-9.577V346.372a9.563,9.563,0,0,0-9.488-9.591H432.861V288.848c0-37.075-29.719-67.108-66.408-67.108"/>
</svg>
