<?xml version="1.0" encoding="utf-8"?>
<!-- Generator: Adobe Illustrator 19.0.0, SVG Export Plug-In . SVG Version: 6.00 Build 0)  -->
<svg version="1.1" id="Layer_1" xmlns="http://www.w3.org/2000/svg" xmlns:xlink="http://www.w3.org/1999/xlink" x="0px" y="0px"
	 viewBox="195 -195 500 500" style="enable-background:new 195 -195 500 500;" xml:space="preserve">
<style type="text/css">
	.st0{fill:#2E5456;}
</style>
<path class="st0" d="M400.3-165c-43.3,0-76,35.3-76,79.9v12c0,0-14.7,4.7-14.7,17.9c0,13.2,5,43.7,18.2,43.7h6.6l22.3,58.3
	c4,13.2-3.7,35-9.2,41.6c-23.9,28.9-99.1,24.5-99.1,64.1v44.3c0,0,19,21.8,125.5,21.8h45.3v-67.1c-0.1-22.7,15.8-42.3,38-47V93.8
	l0.1-3.1l-4.3-4.5c-5.4-6.6-13.2-26.3-9.3-39.6l22.5-58.3h6.6c13.2,0,18.2-30.4,18.2-43.7c0-13.2-14.8-17.9-14.8-17.9v-12
	C476.1-129.7,443.5-165,400.3-165 M533,141.8V93.8c-0.2-15.7,12.4-28.6,28.1-28.8c15.7-0.2,28.6,12.4,28.8,28.1c0,0.2,0,0.5,0,0.7
	v47.9H533 M561.5,26.7c-36.7,0-66.4,30-66.4,67.1v47.9h-28.5c-5.3,0-9.5,4.3-9.5,9.6v115c0,5.3,4.2,9.5,9.5,9.6h189.7
	c5.3,0,9.5-4.3,9.5-9.6V151.4c0-5.3-4.2-9.5-9.5-9.6h-28.5V93.8C627.9,56.8,598.1,26.7,561.5,26.7"/>
</svg>
